<mxfile host="app.diagrams.net" modified="2021-11-14T12:35:37.120Z" agent="5.0 (Macintosh; Intel Mac OS X 10_15_7) AppleWebKit/537.36 (KHTML, like Gecko) Chrome/95.0.4638.69 Safari/537.36" etag="Jgi91nWeqGrzFTSyALia" version="15.7.3" type="github">
  <diagram id="C5RBs43oDa-KdzZeNtuy" name="Page-1">
    <mxGraphModel dx="1143" dy="1137" grid="1" gridSize="10" guides="1" tooltips="1" connect="1" arrows="1" fold="1" page="1" pageScale="1" pageWidth="827" pageHeight="1169" math="0" shadow="0">
      <root>
        <mxCell id="WIyWlLk6GJQsqaUBKTNV-0" />
        <mxCell id="WIyWlLk6GJQsqaUBKTNV-1" parent="WIyWlLk6GJQsqaUBKTNV-0" />
        <mxCell id="WIyWlLk6GJQsqaUBKTNV-2" value="" style="rounded=0;html=1;jettySize=auto;orthogonalLoop=1;fontSize=11;endArrow=block;endFill=0;endSize=8;strokeWidth=1;shadow=0;labelBackgroundColor=none;edgeStyle=orthogonalEdgeStyle;" parent="WIyWlLk6GJQsqaUBKTNV-1" source="WIyWlLk6GJQsqaUBKTNV-3" target="WIyWlLk6GJQsqaUBKTNV-6" edge="1">
          <mxGeometry relative="1" as="geometry" />
        </mxCell>
        <mxCell id="WIyWlLk6GJQsqaUBKTNV-3" value="고객 방문" style="rounded=1;whiteSpace=wrap;html=1;fontSize=12;glass=0;strokeWidth=1;shadow=0;" parent="WIyWlLk6GJQsqaUBKTNV-1" vertex="1">
          <mxGeometry x="360" y="80" width="120" height="40" as="geometry" />
        </mxCell>
        <mxCell id="WIyWlLk6GJQsqaUBKTNV-4" value="수리" style="rounded=0;html=1;jettySize=auto;orthogonalLoop=1;fontSize=11;endArrow=block;endFill=0;endSize=8;strokeWidth=1;shadow=0;labelBackgroundColor=none;edgeStyle=orthogonalEdgeStyle;" parent="WIyWlLk6GJQsqaUBKTNV-1" source="WIyWlLk6GJQsqaUBKTNV-6" edge="1">
          <mxGeometry y="20" relative="1" as="geometry">
            <mxPoint as="offset" />
            <mxPoint x="420" y="290" as="targetPoint" />
          </mxGeometry>
        </mxCell>
        <mxCell id="WIyWlLk6GJQsqaUBKTNV-5" value="구매" style="edgeStyle=orthogonalEdgeStyle;rounded=0;html=1;jettySize=auto;orthogonalLoop=1;fontSize=11;endArrow=block;endFill=0;endSize=8;strokeWidth=1;shadow=0;labelBackgroundColor=none;" parent="WIyWlLk6GJQsqaUBKTNV-1" source="WIyWlLk6GJQsqaUBKTNV-6" target="WIyWlLk6GJQsqaUBKTNV-7" edge="1">
          <mxGeometry y="10" relative="1" as="geometry">
            <mxPoint as="offset" />
          </mxGeometry>
        </mxCell>
        <mxCell id="WIyWlLk6GJQsqaUBKTNV-6" value="목적이 뭐야" style="rhombus;whiteSpace=wrap;html=1;shadow=0;fontFamily=Helvetica;fontSize=12;align=center;strokeWidth=1;spacing=6;spacingTop=-4;" parent="WIyWlLk6GJQsqaUBKTNV-1" vertex="1">
          <mxGeometry x="370" y="180" width="100" height="60" as="geometry" />
        </mxCell>
        <mxCell id="WIyWlLk6GJQsqaUBKTNV-7" value="문진" style="rounded=1;whiteSpace=wrap;html=1;fontSize=12;glass=0;strokeWidth=1;shadow=0;" parent="WIyWlLk6GJQsqaUBKTNV-1" vertex="1">
          <mxGeometry x="520" y="190" width="120" height="40" as="geometry" />
        </mxCell>
        <mxCell id="WIyWlLk6GJQsqaUBKTNV-12" value="수리 이유 확인" style="rounded=1;whiteSpace=wrap;html=1;fontSize=12;glass=0;strokeWidth=1;shadow=0;" parent="WIyWlLk6GJQsqaUBKTNV-1" vertex="1">
          <mxGeometry x="360" y="290" width="120" height="40" as="geometry" />
        </mxCell>
        <mxCell id="jUJpi4Y8mM_DC0yPiapv-0" value="시력 검사" style="rounded=1;whiteSpace=wrap;html=1;fontSize=12;glass=0;strokeWidth=1;shadow=0;" vertex="1" parent="WIyWlLk6GJQsqaUBKTNV-1">
          <mxGeometry x="690" y="190" width="120" height="40" as="geometry" />
        </mxCell>
        <mxCell id="jUJpi4Y8mM_DC0yPiapv-1" value="" style="edgeStyle=orthogonalEdgeStyle;rounded=0;html=1;jettySize=auto;orthogonalLoop=1;fontSize=11;endArrow=block;endFill=0;endSize=8;strokeWidth=1;shadow=0;labelBackgroundColor=none;exitX=1;exitY=0.5;exitDx=0;exitDy=0;entryX=0;entryY=0.5;entryDx=0;entryDy=0;" edge="1" parent="WIyWlLk6GJQsqaUBKTNV-1" source="WIyWlLk6GJQsqaUBKTNV-7" target="jUJpi4Y8mM_DC0yPiapv-0">
          <mxGeometry y="10" relative="1" as="geometry">
            <mxPoint as="offset" />
            <mxPoint x="480" y="220" as="sourcePoint" />
            <mxPoint x="530" y="220" as="targetPoint" />
            <Array as="points">
              <mxPoint x="670" y="210" />
              <mxPoint x="670" y="210" />
            </Array>
          </mxGeometry>
        </mxCell>
        <mxCell id="jUJpi4Y8mM_DC0yPiapv-2" value="" style="edgeStyle=orthogonalEdgeStyle;rounded=0;html=1;jettySize=auto;orthogonalLoop=1;fontSize=11;endArrow=block;endFill=0;endSize=8;strokeWidth=1;shadow=0;labelBackgroundColor=none;exitX=0.5;exitY=1;exitDx=0;exitDy=0;entryX=0.5;entryY=0;entryDx=0;entryDy=0;" edge="1" parent="WIyWlLk6GJQsqaUBKTNV-1" source="jUJpi4Y8mM_DC0yPiapv-0" target="jUJpi4Y8mM_DC0yPiapv-3">
          <mxGeometry y="10" relative="1" as="geometry">
            <mxPoint as="offset" />
            <mxPoint x="810" y="209.5" as="sourcePoint" />
            <mxPoint x="860" y="209.5" as="targetPoint" />
            <Array as="points" />
          </mxGeometry>
        </mxCell>
        <mxCell id="jUJpi4Y8mM_DC0yPiapv-3" value="제품 선택" style="rounded=1;whiteSpace=wrap;html=1;fontSize=12;glass=0;strokeWidth=1;shadow=0;" vertex="1" parent="WIyWlLk6GJQsqaUBKTNV-1">
          <mxGeometry x="690" y="260" width="120" height="40" as="geometry" />
        </mxCell>
        <mxCell id="jUJpi4Y8mM_DC0yPiapv-4" value="가격 상담" style="rounded=1;whiteSpace=wrap;html=1;fontSize=12;glass=0;strokeWidth=1;shadow=0;" vertex="1" parent="WIyWlLk6GJQsqaUBKTNV-1">
          <mxGeometry x="690" y="330" width="120" height="40" as="geometry" />
        </mxCell>
        <mxCell id="jUJpi4Y8mM_DC0yPiapv-6" value="수리 기간, 연락 공지" style="rounded=1;whiteSpace=wrap;html=1;fontSize=12;glass=0;strokeWidth=1;shadow=0;" vertex="1" parent="WIyWlLk6GJQsqaUBKTNV-1">
          <mxGeometry x="360" y="430" width="120" height="40" as="geometry" />
        </mxCell>
        <mxCell id="jUJpi4Y8mM_DC0yPiapv-7" value="가격" style="rhombus;whiteSpace=wrap;html=1;shadow=0;fontFamily=Helvetica;fontSize=12;align=center;strokeWidth=1;spacing=6;spacingTop=-4;" vertex="1" parent="WIyWlLk6GJQsqaUBKTNV-1">
          <mxGeometry x="370" y="500" width="100" height="60" as="geometry" />
        </mxCell>
        <mxCell id="jUJpi4Y8mM_DC0yPiapv-8" value="매출란 기입" style="rounded=1;whiteSpace=wrap;html=1;fontSize=12;glass=0;strokeWidth=1;shadow=0;" vertex="1" parent="WIyWlLk6GJQsqaUBKTNV-1">
          <mxGeometry x="440" y="600" width="120" height="40" as="geometry" />
        </mxCell>
        <mxCell id="jUJpi4Y8mM_DC0yPiapv-9" value="메모" style="rounded=1;whiteSpace=wrap;html=1;fontSize=12;glass=0;strokeWidth=1;shadow=0;" vertex="1" parent="WIyWlLk6GJQsqaUBKTNV-1">
          <mxGeometry x="280" y="600" width="120" height="40" as="geometry" />
        </mxCell>
        <mxCell id="jUJpi4Y8mM_DC0yPiapv-11" value="" style="rounded=0;html=1;jettySize=auto;orthogonalLoop=1;fontSize=11;endArrow=block;endFill=0;endSize=8;strokeWidth=1;shadow=0;labelBackgroundColor=none;edgeStyle=orthogonalEdgeStyle;exitX=0.5;exitY=1;exitDx=0;exitDy=0;entryX=0.5;entryY=0;entryDx=0;entryDy=0;" edge="1" parent="WIyWlLk6GJQsqaUBKTNV-1" source="jUJpi4Y8mM_DC0yPiapv-7" target="jUJpi4Y8mM_DC0yPiapv-8">
          <mxGeometry y="20" relative="1" as="geometry">
            <mxPoint as="offset" />
            <mxPoint x="430" y="320" as="sourcePoint" />
            <mxPoint x="430" y="370" as="targetPoint" />
          </mxGeometry>
        </mxCell>
        <mxCell id="jUJpi4Y8mM_DC0yPiapv-12" value="" style="rounded=0;html=1;jettySize=auto;orthogonalLoop=1;fontSize=11;endArrow=block;endFill=0;endSize=8;strokeWidth=1;shadow=0;labelBackgroundColor=none;edgeStyle=orthogonalEdgeStyle;exitX=0.5;exitY=1;exitDx=0;exitDy=0;entryX=0.5;entryY=0;entryDx=0;entryDy=0;" edge="1" parent="WIyWlLk6GJQsqaUBKTNV-1" source="jUJpi4Y8mM_DC0yPiapv-7" target="jUJpi4Y8mM_DC0yPiapv-9">
          <mxGeometry y="20" relative="1" as="geometry">
            <mxPoint as="offset" />
            <mxPoint x="430" y="570" as="sourcePoint" />
            <mxPoint x="510" y="610" as="targetPoint" />
          </mxGeometry>
        </mxCell>
        <mxCell id="jUJpi4Y8mM_DC0yPiapv-14" value="" style="rounded=0;html=1;jettySize=auto;orthogonalLoop=1;fontSize=11;endArrow=block;endFill=0;endSize=8;strokeWidth=1;shadow=0;labelBackgroundColor=none;edgeStyle=orthogonalEdgeStyle;exitX=0.5;exitY=1;exitDx=0;exitDy=0;entryX=0.5;entryY=0;entryDx=0;entryDy=0;" edge="1" parent="WIyWlLk6GJQsqaUBKTNV-1" source="WIyWlLk6GJQsqaUBKTNV-12" target="jUJpi4Y8mM_DC0yPiapv-28">
          <mxGeometry y="20" relative="1" as="geometry">
            <mxPoint as="offset" />
            <mxPoint x="430" y="250" as="sourcePoint" />
            <mxPoint x="430" y="300" as="targetPoint" />
          </mxGeometry>
        </mxCell>
        <mxCell id="jUJpi4Y8mM_DC0yPiapv-15" value="" style="rounded=0;html=1;jettySize=auto;orthogonalLoop=1;fontSize=11;endArrow=block;endFill=0;endSize=8;strokeWidth=1;shadow=0;labelBackgroundColor=none;edgeStyle=orthogonalEdgeStyle;entryX=0.5;entryY=0;entryDx=0;entryDy=0;" edge="1" parent="WIyWlLk6GJQsqaUBKTNV-1" target="jUJpi4Y8mM_DC0yPiapv-7">
          <mxGeometry y="20" relative="1" as="geometry">
            <mxPoint as="offset" />
            <mxPoint x="420" y="470" as="sourcePoint" />
            <mxPoint x="430" y="440" as="targetPoint" />
          </mxGeometry>
        </mxCell>
        <mxCell id="jUJpi4Y8mM_DC0yPiapv-21" value="&lt;font face=&quot;helvetica&quot;&gt;&lt;span style=&quot;font-size: 11px&quot;&gt;유상&lt;/span&gt;&lt;/font&gt;" style="text;whiteSpace=wrap;html=1;fontSize=20;fontFamily=Architects Daughter;" vertex="1" parent="WIyWlLk6GJQsqaUBKTNV-1">
          <mxGeometry x="450" y="550" width="40" height="40" as="geometry" />
        </mxCell>
        <mxCell id="jUJpi4Y8mM_DC0yPiapv-22" value="&lt;font face=&quot;helvetica&quot;&gt;&lt;span style=&quot;font-size: 11px&quot;&gt;무상&lt;/span&gt;&lt;/font&gt;" style="text;whiteSpace=wrap;html=1;fontSize=20;fontFamily=Architects Daughter;" vertex="1" parent="WIyWlLk6GJQsqaUBKTNV-1">
          <mxGeometry x="370" y="550" width="40" height="40" as="geometry" />
        </mxCell>
        <mxCell id="jUJpi4Y8mM_DC0yPiapv-23" value="" style="edgeStyle=orthogonalEdgeStyle;rounded=0;html=1;jettySize=auto;orthogonalLoop=1;fontSize=11;endArrow=block;endFill=0;endSize=8;strokeWidth=1;shadow=0;labelBackgroundColor=none;exitX=0.5;exitY=1;exitDx=0;exitDy=0;entryX=0.5;entryY=0;entryDx=0;entryDy=0;" edge="1" parent="WIyWlLk6GJQsqaUBKTNV-1" source="jUJpi4Y8mM_DC0yPiapv-3" target="jUJpi4Y8mM_DC0yPiapv-4">
          <mxGeometry y="10" relative="1" as="geometry">
            <mxPoint as="offset" />
            <mxPoint x="760" y="240" as="sourcePoint" />
            <mxPoint x="760" y="270" as="targetPoint" />
            <Array as="points" />
          </mxGeometry>
        </mxCell>
        <mxCell id="jUJpi4Y8mM_DC0yPiapv-24" value="" style="edgeStyle=orthogonalEdgeStyle;rounded=0;html=1;jettySize=auto;orthogonalLoop=1;fontSize=11;endArrow=block;endFill=0;endSize=8;strokeWidth=1;shadow=0;labelBackgroundColor=none;exitX=0.5;exitY=1;exitDx=0;exitDy=0;entryX=0.5;entryY=0;entryDx=0;entryDy=0;" edge="1" parent="WIyWlLk6GJQsqaUBKTNV-1" source="jUJpi4Y8mM_DC0yPiapv-4">
          <mxGeometry y="10" relative="1" as="geometry">
            <mxPoint as="offset" />
            <mxPoint x="760" y="310" as="sourcePoint" />
            <mxPoint x="750" y="400" as="targetPoint" />
            <Array as="points" />
          </mxGeometry>
        </mxCell>
        <mxCell id="jUJpi4Y8mM_DC0yPiapv-25" value="" style="edgeStyle=orthogonalEdgeStyle;rounded=0;html=1;jettySize=auto;orthogonalLoop=1;fontSize=11;endArrow=block;endFill=0;strokeWidth=1;shadow=0;labelBackgroundColor=none;" edge="1" parent="WIyWlLk6GJQsqaUBKTNV-1">
          <mxGeometry y="10" relative="1" as="geometry">
            <mxPoint as="offset" />
            <mxPoint x="370" y="209.76" as="sourcePoint" />
            <mxPoint x="320" y="209.76" as="targetPoint" />
          </mxGeometry>
        </mxCell>
        <mxCell id="jUJpi4Y8mM_DC0yPiapv-26" value="&lt;meta charset=&quot;utf-8&quot;&gt;&lt;span style=&quot;color: rgb(0, 0, 0); font-family: helvetica; font-size: 11px; font-style: normal; font-weight: 400; letter-spacing: normal; text-align: center; text-indent: 0px; text-transform: none; word-spacing: 0px; background-color: rgb(248, 249, 250); display: inline; float: none;&quot;&gt;교환/환불&lt;/span&gt;" style="text;whiteSpace=wrap;html=1;fontSize=20;fontFamily=Architects Daughter;" vertex="1" parent="WIyWlLk6GJQsqaUBKTNV-1">
          <mxGeometry x="330" y="180" width="70" height="40" as="geometry" />
        </mxCell>
        <mxCell id="jUJpi4Y8mM_DC0yPiapv-27" value="이유 확인" style="rounded=1;whiteSpace=wrap;html=1;fontSize=12;glass=0;strokeWidth=1;shadow=0;" vertex="1" parent="WIyWlLk6GJQsqaUBKTNV-1">
          <mxGeometry x="250" y="190" width="70" height="40" as="geometry" />
        </mxCell>
        <mxCell id="jUJpi4Y8mM_DC0yPiapv-28" value="제품 확인" style="rounded=1;whiteSpace=wrap;html=1;fontSize=12;glass=0;strokeWidth=1;shadow=0;" vertex="1" parent="WIyWlLk6GJQsqaUBKTNV-1">
          <mxGeometry x="360" y="360" width="120" height="40" as="geometry" />
        </mxCell>
        <mxCell id="jUJpi4Y8mM_DC0yPiapv-29" value="" style="rounded=0;html=1;jettySize=auto;orthogonalLoop=1;fontSize=11;endArrow=block;endFill=0;endSize=8;strokeWidth=1;shadow=0;labelBackgroundColor=none;edgeStyle=orthogonalEdgeStyle;exitX=0.5;exitY=1;exitDx=0;exitDy=0;entryX=0.5;entryY=0;entryDx=0;entryDy=0;" edge="1" parent="WIyWlLk6GJQsqaUBKTNV-1" source="jUJpi4Y8mM_DC0yPiapv-28" target="jUJpi4Y8mM_DC0yPiapv-6">
          <mxGeometry y="20" relative="1" as="geometry">
            <mxPoint as="offset" />
            <mxPoint x="430" y="340" as="sourcePoint" />
            <mxPoint x="430" y="370" as="targetPoint" />
          </mxGeometry>
        </mxCell>
        <mxCell id="jUJpi4Y8mM_DC0yPiapv-30" value="추가 가격" style="rhombus;whiteSpace=wrap;html=1;shadow=0;fontFamily=Helvetica;fontSize=12;align=center;strokeWidth=1;spacing=6;spacingTop=-4;" vertex="1" parent="WIyWlLk6GJQsqaUBKTNV-1">
          <mxGeometry x="110" y="270" width="100" height="60" as="geometry" />
        </mxCell>
        <mxCell id="jUJpi4Y8mM_DC0yPiapv-32" value="새상품 매입 / 재작업" style="rounded=1;whiteSpace=wrap;html=1;fontSize=12;glass=0;strokeWidth=1;shadow=0;" vertex="1" parent="WIyWlLk6GJQsqaUBKTNV-1">
          <mxGeometry x="100" y="540" width="120" height="40" as="geometry" />
        </mxCell>
        <mxCell id="jUJpi4Y8mM_DC0yPiapv-33" value="매출란 기입" style="rounded=1;whiteSpace=wrap;html=1;fontSize=12;glass=0;strokeWidth=1;shadow=0;" vertex="1" parent="WIyWlLk6GJQsqaUBKTNV-1">
          <mxGeometry x="20" y="420" width="120" height="40" as="geometry" />
        </mxCell>
        <mxCell id="jUJpi4Y8mM_DC0yPiapv-34" value="" style="rounded=0;html=1;jettySize=auto;orthogonalLoop=1;fontSize=11;endArrow=block;endFill=0;endSize=8;strokeWidth=1;shadow=0;labelBackgroundColor=none;edgeStyle=orthogonalEdgeStyle;exitX=0.5;exitY=1;exitDx=0;exitDy=0;entryX=0.5;entryY=0;entryDx=0;entryDy=0;" edge="1" parent="WIyWlLk6GJQsqaUBKTNV-1" target="jUJpi4Y8mM_DC0yPiapv-32" source="jUJpi4Y8mM_DC0yPiapv-30">
          <mxGeometry y="20" relative="1" as="geometry">
            <mxPoint as="offset" />
            <mxPoint x="159.9999999999999" y="380" as="sourcePoint" />
            <mxPoint x="170" y="190" as="targetPoint" />
          </mxGeometry>
        </mxCell>
        <mxCell id="jUJpi4Y8mM_DC0yPiapv-35" value="" style="rounded=0;html=1;jettySize=auto;orthogonalLoop=1;fontSize=11;endArrow=block;endFill=0;endSize=8;strokeWidth=1;shadow=0;labelBackgroundColor=none;edgeStyle=orthogonalEdgeStyle;exitX=0.5;exitY=1;exitDx=0;exitDy=0;entryX=0.5;entryY=0;entryDx=0;entryDy=0;" edge="1" parent="WIyWlLk6GJQsqaUBKTNV-1" target="jUJpi4Y8mM_DC0yPiapv-33" source="jUJpi4Y8mM_DC0yPiapv-30">
          <mxGeometry y="20" relative="1" as="geometry">
            <mxPoint as="offset" />
            <mxPoint x="159.9999999999999" y="380" as="sourcePoint" />
            <mxPoint x="250" y="430" as="targetPoint" />
          </mxGeometry>
        </mxCell>
        <mxCell id="jUJpi4Y8mM_DC0yPiapv-40" value="&lt;font face=&quot;helvetica&quot;&gt;&lt;span style=&quot;font-size: 11px&quot;&gt;청구&lt;/span&gt;&lt;/font&gt;" style="text;whiteSpace=wrap;html=1;fontSize=20;fontFamily=Architects Daughter;" vertex="1" parent="WIyWlLk6GJQsqaUBKTNV-1">
          <mxGeometry x="130" y="330" width="40" height="40" as="geometry" />
        </mxCell>
        <mxCell id="jUJpi4Y8mM_DC0yPiapv-41" value="&lt;font face=&quot;helvetica&quot;&gt;&lt;span style=&quot;font-size: 11px&quot;&gt;추가없음&lt;/span&gt;&lt;/font&gt;" style="text;whiteSpace=wrap;html=1;fontSize=20;fontFamily=Architects Daughter;" vertex="1" parent="WIyWlLk6GJQsqaUBKTNV-1">
          <mxGeometry x="170" y="420" width="50" height="40" as="geometry" />
        </mxCell>
        <mxCell id="jUJpi4Y8mM_DC0yPiapv-46" value="제품 확인" style="rounded=1;whiteSpace=wrap;html=1;fontSize=12;glass=0;strokeWidth=1;shadow=0;" vertex="1" parent="WIyWlLk6GJQsqaUBKTNV-1">
          <mxGeometry x="125" y="190" width="70" height="40" as="geometry" />
        </mxCell>
        <mxCell id="jUJpi4Y8mM_DC0yPiapv-49" value="" style="rounded=0;html=1;jettySize=auto;orthogonalLoop=1;fontSize=11;endArrow=block;endFill=0;endSize=8;strokeWidth=1;shadow=0;labelBackgroundColor=none;edgeStyle=orthogonalEdgeStyle;exitX=0.5;exitY=1;exitDx=0;exitDy=0;" edge="1" parent="WIyWlLk6GJQsqaUBKTNV-1" source="jUJpi4Y8mM_DC0yPiapv-33">
          <mxGeometry y="20" relative="1" as="geometry">
            <mxPoint as="offset" />
            <mxPoint x="170" y="340" as="sourcePoint" />
            <mxPoint x="160" y="540" as="targetPoint" />
          </mxGeometry>
        </mxCell>
        <mxCell id="jUJpi4Y8mM_DC0yPiapv-51" value="" style="rounded=0;html=1;jettySize=auto;orthogonalLoop=1;fontSize=11;endArrow=block;endFill=0;endSize=8;strokeWidth=1;shadow=0;labelBackgroundColor=none;edgeStyle=orthogonalEdgeStyle;entryX=0.5;entryY=0;entryDx=0;entryDy=0;exitX=0.5;exitY=1;exitDx=0;exitDy=0;" edge="1" parent="WIyWlLk6GJQsqaUBKTNV-1" source="jUJpi4Y8mM_DC0yPiapv-46" target="jUJpi4Y8mM_DC0yPiapv-30">
          <mxGeometry y="20" relative="1" as="geometry">
            <mxPoint as="offset" />
            <mxPoint x="180" y="250" as="sourcePoint" />
            <mxPoint x="430" y="510" as="targetPoint" />
          </mxGeometry>
        </mxCell>
        <mxCell id="jUJpi4Y8mM_DC0yPiapv-52" value="" style="rounded=0;html=1;jettySize=auto;orthogonalLoop=1;fontSize=11;endArrow=block;endFill=0;endSize=8;strokeWidth=1;shadow=0;labelBackgroundColor=none;edgeStyle=orthogonalEdgeStyle;entryX=1;entryY=0.5;entryDx=0;entryDy=0;exitX=0;exitY=0.5;exitDx=0;exitDy=0;" edge="1" parent="WIyWlLk6GJQsqaUBKTNV-1" source="jUJpi4Y8mM_DC0yPiapv-27" target="jUJpi4Y8mM_DC0yPiapv-46">
          <mxGeometry y="20" relative="1" as="geometry">
            <mxPoint as="offset" />
            <mxPoint x="170" y="240" as="sourcePoint" />
            <mxPoint x="170" y="280" as="targetPoint" />
          </mxGeometry>
        </mxCell>
        <mxCell id="jUJpi4Y8mM_DC0yPiapv-54" value="작업" style="rounded=1;whiteSpace=wrap;html=1;fontSize=12;glass=0;strokeWidth=1;shadow=0;" vertex="1" parent="WIyWlLk6GJQsqaUBKTNV-1">
          <mxGeometry x="540" y="410" width="120" height="40" as="geometry" />
        </mxCell>
        <mxCell id="jUJpi4Y8mM_DC0yPiapv-55" value="재고 확인" style="rhombus;whiteSpace=wrap;html=1;shadow=0;fontFamily=Helvetica;fontSize=12;align=center;strokeWidth=1;spacing=6;spacingTop=-4;" vertex="1" parent="WIyWlLk6GJQsqaUBKTNV-1">
          <mxGeometry x="700" y="400" width="100" height="60" as="geometry" />
        </mxCell>
        <mxCell id="jUJpi4Y8mM_DC0yPiapv-56" value="" style="edgeStyle=orthogonalEdgeStyle;rounded=0;html=1;jettySize=auto;orthogonalLoop=1;fontSize=11;endArrow=block;endFill=0;endSize=8;strokeWidth=1;shadow=0;labelBackgroundColor=none;exitX=0;exitY=0.5;exitDx=0;exitDy=0;entryX=1;entryY=0.5;entryDx=0;entryDy=0;" edge="1" parent="WIyWlLk6GJQsqaUBKTNV-1" source="jUJpi4Y8mM_DC0yPiapv-55" target="jUJpi4Y8mM_DC0yPiapv-54">
          <mxGeometry y="10" relative="1" as="geometry">
            <mxPoint as="offset" />
            <mxPoint x="760" y="380" as="sourcePoint" />
            <mxPoint x="760" y="410" as="targetPoint" />
            <Array as="points">
              <mxPoint x="660" y="430" />
              <mxPoint x="660" y="430" />
            </Array>
          </mxGeometry>
        </mxCell>
        <mxCell id="jUJpi4Y8mM_DC0yPiapv-57" value="&lt;font face=&quot;helvetica&quot;&gt;&lt;span style=&quot;font-size: 11px&quot;&gt;Yes&lt;/span&gt;&lt;/font&gt;" style="text;whiteSpace=wrap;html=1;fontSize=20;fontFamily=Architects Daughter;" vertex="1" parent="WIyWlLk6GJQsqaUBKTNV-1">
          <mxGeometry x="680" y="400" width="40" height="40" as="geometry" />
        </mxCell>
        <mxCell id="jUJpi4Y8mM_DC0yPiapv-58" value="" style="edgeStyle=orthogonalEdgeStyle;rounded=0;html=1;jettySize=auto;orthogonalLoop=1;fontSize=11;endArrow=block;endFill=0;endSize=8;strokeWidth=1;shadow=0;labelBackgroundColor=none;exitX=0.5;exitY=1;exitDx=0;exitDy=0;entryX=0.5;entryY=0;entryDx=0;entryDy=0;" edge="1" parent="WIyWlLk6GJQsqaUBKTNV-1" source="jUJpi4Y8mM_DC0yPiapv-55" target="jUJpi4Y8mM_DC0yPiapv-59">
          <mxGeometry y="10" relative="1" as="geometry">
            <mxPoint as="offset" />
            <mxPoint x="760" y="380" as="sourcePoint" />
            <mxPoint x="760" y="410" as="targetPoint" />
            <Array as="points" />
          </mxGeometry>
        </mxCell>
        <mxCell id="jUJpi4Y8mM_DC0yPiapv-59" value="주문" style="rounded=1;whiteSpace=wrap;html=1;fontSize=12;glass=0;strokeWidth=1;shadow=0;" vertex="1" parent="WIyWlLk6GJQsqaUBKTNV-1">
          <mxGeometry x="690" y="490" width="120" height="40" as="geometry" />
        </mxCell>
        <mxCell id="jUJpi4Y8mM_DC0yPiapv-60" value="&lt;font face=&quot;helvetica&quot;&gt;&lt;span style=&quot;font-size: 11px&quot;&gt;NO&lt;/span&gt;&lt;/font&gt;" style="text;whiteSpace=wrap;html=1;fontSize=20;fontFamily=Architects Daughter;" vertex="1" parent="WIyWlLk6GJQsqaUBKTNV-1">
          <mxGeometry x="760" y="450" width="40" height="40" as="geometry" />
        </mxCell>
        <mxCell id="jUJpi4Y8mM_DC0yPiapv-62" value="재고 확인" style="rounded=1;whiteSpace=wrap;html=1;fontSize=12;glass=0;strokeWidth=1;shadow=0;" vertex="1" parent="WIyWlLk6GJQsqaUBKTNV-1">
          <mxGeometry x="360" y="740" width="120" height="40" as="geometry" />
        </mxCell>
        <mxCell id="jUJpi4Y8mM_DC0yPiapv-64" value="부족한 재고 주문" style="rounded=1;whiteSpace=wrap;html=1;fontSize=12;glass=0;strokeWidth=1;shadow=0;" vertex="1" parent="WIyWlLk6GJQsqaUBKTNV-1">
          <mxGeometry x="360" y="850" width="120" height="40" as="geometry" />
        </mxCell>
        <mxCell id="jUJpi4Y8mM_DC0yPiapv-65" value="주문 방식" style="rhombus;whiteSpace=wrap;html=1;shadow=0;fontFamily=Helvetica;fontSize=12;align=center;strokeWidth=1;spacing=6;spacingTop=-4;" vertex="1" parent="WIyWlLk6GJQsqaUBKTNV-1">
          <mxGeometry x="370" y="920" width="100" height="60" as="geometry" />
        </mxCell>
        <mxCell id="jUJpi4Y8mM_DC0yPiapv-66" value="직거래 주문" style="rounded=1;whiteSpace=wrap;html=1;fontSize=12;glass=0;strokeWidth=1;shadow=0;" vertex="1" parent="WIyWlLk6GJQsqaUBKTNV-1">
          <mxGeometry x="440" y="1020" width="120" height="40" as="geometry" />
        </mxCell>
        <mxCell id="jUJpi4Y8mM_DC0yPiapv-67" value="전용 홈페이지 주문" style="rounded=1;whiteSpace=wrap;html=1;fontSize=12;glass=0;strokeWidth=1;shadow=0;" vertex="1" parent="WIyWlLk6GJQsqaUBKTNV-1">
          <mxGeometry x="280" y="1020" width="120" height="40" as="geometry" />
        </mxCell>
        <mxCell id="jUJpi4Y8mM_DC0yPiapv-68" value="" style="rounded=0;html=1;jettySize=auto;orthogonalLoop=1;fontSize=11;endArrow=block;endFill=0;endSize=8;strokeWidth=1;shadow=0;labelBackgroundColor=none;edgeStyle=orthogonalEdgeStyle;exitX=0.5;exitY=1;exitDx=0;exitDy=0;entryX=0.5;entryY=0;entryDx=0;entryDy=0;" edge="1" parent="WIyWlLk6GJQsqaUBKTNV-1" source="jUJpi4Y8mM_DC0yPiapv-65" target="jUJpi4Y8mM_DC0yPiapv-66">
          <mxGeometry y="20" relative="1" as="geometry">
            <mxPoint as="offset" />
            <mxPoint x="430" y="740" as="sourcePoint" />
            <mxPoint x="430" y="790" as="targetPoint" />
          </mxGeometry>
        </mxCell>
        <mxCell id="jUJpi4Y8mM_DC0yPiapv-69" value="" style="rounded=0;html=1;jettySize=auto;orthogonalLoop=1;fontSize=11;endArrow=block;endFill=0;endSize=8;strokeWidth=1;shadow=0;labelBackgroundColor=none;edgeStyle=orthogonalEdgeStyle;exitX=0.5;exitY=1;exitDx=0;exitDy=0;entryX=0.5;entryY=0;entryDx=0;entryDy=0;" edge="1" parent="WIyWlLk6GJQsqaUBKTNV-1" source="jUJpi4Y8mM_DC0yPiapv-65" target="jUJpi4Y8mM_DC0yPiapv-67">
          <mxGeometry y="20" relative="1" as="geometry">
            <mxPoint as="offset" />
            <mxPoint x="430" y="990" as="sourcePoint" />
            <mxPoint x="510" y="1030" as="targetPoint" />
          </mxGeometry>
        </mxCell>
        <mxCell id="jUJpi4Y8mM_DC0yPiapv-70" value="&lt;font face=&quot;helvetica&quot;&gt;&lt;span style=&quot;font-size: 11px&quot;&gt;타 업체&lt;/span&gt;&lt;/font&gt;" style="text;whiteSpace=wrap;html=1;fontSize=20;fontFamily=Architects Daughter;" vertex="1" parent="WIyWlLk6GJQsqaUBKTNV-1">
          <mxGeometry x="450" y="970" width="40" height="40" as="geometry" />
        </mxCell>
        <mxCell id="jUJpi4Y8mM_DC0yPiapv-71" value="&lt;font face=&quot;helvetica&quot;&gt;&lt;span style=&quot;font-size: 11px&quot;&gt;협력 업체&lt;/span&gt;&lt;/font&gt;" style="text;whiteSpace=wrap;html=1;fontSize=20;fontFamily=Architects Daughter;" vertex="1" parent="WIyWlLk6GJQsqaUBKTNV-1">
          <mxGeometry x="360" y="970" width="50" height="40" as="geometry" />
        </mxCell>
        <mxCell id="jUJpi4Y8mM_DC0yPiapv-73" value="" style="rounded=0;html=1;jettySize=auto;orthogonalLoop=1;fontSize=11;endArrow=block;endFill=0;endSize=8;strokeWidth=1;shadow=0;labelBackgroundColor=none;edgeStyle=orthogonalEdgeStyle;exitX=0.5;exitY=1;exitDx=0;exitDy=0;entryX=0.5;entryY=0;entryDx=0;entryDy=0;" edge="1" parent="WIyWlLk6GJQsqaUBKTNV-1" source="jUJpi4Y8mM_DC0yPiapv-62" target="jUJpi4Y8mM_DC0yPiapv-64">
          <mxGeometry y="20" relative="1" as="geometry">
            <mxPoint as="offset" />
            <mxPoint x="419" y="780" as="sourcePoint" />
            <mxPoint x="419" y="990" as="targetPoint" />
          </mxGeometry>
        </mxCell>
        <mxCell id="jUJpi4Y8mM_DC0yPiapv-74" value="" style="rounded=0;html=1;jettySize=auto;orthogonalLoop=1;fontSize=11;endArrow=block;endFill=0;endSize=8;strokeWidth=1;shadow=0;labelBackgroundColor=none;edgeStyle=orthogonalEdgeStyle;exitX=0.5;exitY=1;exitDx=0;exitDy=0;entryX=0.5;entryY=0;entryDx=0;entryDy=0;" edge="1" parent="WIyWlLk6GJQsqaUBKTNV-1" source="jUJpi4Y8mM_DC0yPiapv-64" target="jUJpi4Y8mM_DC0yPiapv-65">
          <mxGeometry y="20" relative="1" as="geometry">
            <mxPoint as="offset" />
            <mxPoint x="430" y="790" as="sourcePoint" />
            <mxPoint x="430" y="860" as="targetPoint" />
          </mxGeometry>
        </mxCell>
        <mxCell id="jUJpi4Y8mM_DC0yPiapv-75" value="" style="rounded=0;html=1;jettySize=auto;orthogonalLoop=1;fontSize=11;endArrow=block;endFill=0;endSize=8;strokeWidth=1;shadow=0;labelBackgroundColor=none;edgeStyle=orthogonalEdgeStyle;exitX=0;exitY=0.5;exitDx=0;exitDy=0;entryX=0.5;entryY=0;entryDx=0;entryDy=0;" edge="1" parent="WIyWlLk6GJQsqaUBKTNV-1" source="jUJpi4Y8mM_DC0yPiapv-32" target="jUJpi4Y8mM_DC0yPiapv-64">
          <mxGeometry y="20" relative="1" as="geometry">
            <mxPoint as="offset" />
            <mxPoint x="240" y="760" as="sourcePoint" />
            <mxPoint x="130" y="740" as="targetPoint" />
            <Array as="points">
              <mxPoint x="70" y="560" />
              <mxPoint x="70" y="810" />
              <mxPoint x="420" y="810" />
            </Array>
          </mxGeometry>
        </mxCell>
        <mxCell id="jUJpi4Y8mM_DC0yPiapv-76" value="" style="rounded=0;html=1;jettySize=auto;orthogonalLoop=1;fontSize=11;endArrow=block;endFill=0;endSize=8;strokeWidth=1;shadow=0;labelBackgroundColor=none;edgeStyle=orthogonalEdgeStyle;entryX=0.5;entryY=0;entryDx=0;entryDy=0;exitX=0.5;exitY=1;exitDx=0;exitDy=0;" edge="1" parent="WIyWlLk6GJQsqaUBKTNV-1" source="jUJpi4Y8mM_DC0yPiapv-59" target="jUJpi4Y8mM_DC0yPiapv-64">
          <mxGeometry y="20" relative="1" as="geometry">
            <mxPoint as="offset" />
            <mxPoint x="570" y="720" as="sourcePoint" />
            <mxPoint x="250" y="840" as="targetPoint" />
            <Array as="points">
              <mxPoint x="750" y="810" />
              <mxPoint x="420" y="810" />
            </Array>
          </mxGeometry>
        </mxCell>
      </root>
    </mxGraphModel>
  </diagram>
</mxfile>
